<?xml version="1.0" encoding="UTF-8"?>
<svg xmlns="http://www.w3.org/2000/svg" viewBox="0 0 1079 836">
  <defs>
    <style>
      .cls-1, .cls-2, .cls-3, .cls-4, .cls-5 {
        fill: none;
        stroke: #000;
      }

      .cls-1, .cls-3, .cls-5 {
        stroke-miterlimit: 10;
      }

      .cls-6 {
        stroke-width: 0px;
      }

      .cls-2, .cls-4 {
        stroke-linejoin: round;
      }

      .cls-2, .cls-4, .cls-5 {
        stroke-width: 9px;
      }

      .cls-3 {
        stroke-width: 3px;
      }

      .cls-4 {
        stroke-linecap: round;
      }
    </style>
  </defs>
  <g id="Layer_4" data-name="Layer 4">
    <g>
      <path class="cls-6" d="M79.5,532.5c-17.22-59.07-20.34-122.6-8.08-182.95,16.89-84.91,65.04-162.65,130.68-218.68C393.91-32.59,686.48,20.51,804.87,244.05c5.72,10.91,10.95,22.07,15.63,33.45-9.7-22.62-21.66-44.22-35.27-64.7-29.17-43.32-66.9-80.69-110.42-109.51C505.53-7.7,280.34,29.64,153.07,186.07c-40.48,49.95-69.88,109.48-81.32,172.95-10.42,57.42-7.74,117.21,7.74,173.48h0Z"/>
      <path class="cls-6" d="M179.5,496.5c-16.5-47.9-24.07-99.09-21.68-149.72,4.17-89.47,28.98-177,96.19-239.82,15.68-14.7,32.98-27.73,51.99-37.85,47.91-24.44,104.37-31.3,156.95-20.51,42.16,8.56,81.31,28.45,115.81,53.79,17.29,12.57,34.08,25.97,49.21,41.12,22.92,22.52,42.27,48.3,59.62,75.25,17.29,26.95,31.76,55.74,42.91,85.74-11.76-29.72-26.53-58.26-44.18-84.92-17.69-26.53-37.16-52.1-60.12-74.27-15.17-14.93-31.92-28.07-49.23-40.43-34.41-24.72-73-44.39-114.74-52.72-51.77-10.53-107.22-3.42-154.41,20.4-18.68,9.88-35.81,22.7-51.26,37.11-70.22,65.16-94.87,160.13-97.13,253.16-.82,45.24,6.16,90.62,20.08,133.67h0Z"/>
      <path class="cls-6" d="M283.5,350.5c-4.55-30.72-8.15-62.19-10.16-93.15-1.73-31.2-2.94-62.77,1.83-93.78,5.14-31.45,18.09-74.15,42.37-95.9,9.22-7.72,21.01-11.85,32.54-14.72,15.51-3.55,32.17-3.61,47.26,1.86,78.84,31.63,144.32,136.03,180.63,210,13.55,28.16,25.55,57.08,35.53,86.69-2.7-7.33-5.5-14.61-8.41-21.85-2.89-7.25-5.89-14.46-8.99-21.61-36.33-83.74-112.49-214.67-200.09-249.46-21.68-7.8-46.28-4.23-66.66,5.78-19.66,9.57-31.65,35.21-39.18,54.82-7.98,21.85-13.06,44.79-14.8,68-1.64,23.3-1.18,46.73-.08,70.07,1.38,30.94,4.51,62.48,8.21,93.26h0Z"/>
      <polygon class="cls-6" points="468.5 407.5 343.67 56.48 349.33 54.52 468.5 407.5 468.5 407.5"/>
    </g>
    <g>
      <path class="cls-3" d="M205.5,130.5c17.74.13,40.6-.64,67-4,25.06-3.19,60.85-9.67,102-24,45.39-15.81,77.19-34.18,87-40,14.51-8.61,26.32-16.71,35-23"/>
      <path class="cls-1" d="M144.5,194.5c21.09,2.08,49.87,3.91,84,3,31.23-.83,85.52-2.63,153-22,19.06-5.47,64.51-19.62,118-49,40-21.97,71.6-45.38,95-65"/>
      <path class="cls-1" d="M93.5,284.5c32.37,5,76.17,9.46,128,8,95.89-2.71,167.1-24.26,191-32,18.62-6.03,81.22-27.23,154-73,46.86-29.47,83.34-59.95,110-85"/>
      <path class="cls-1" d="M67.5,386.5c35.76,5.19,80.09,9.35,131,9,69.22-.48,124.03-9.11,155-15,35.33-6.72,96.99-18.83,172-52,33.81-14.95,99.48-47.07,170-105,24.23-19.91,43.37-38.2,57-52"/>
    </g>
  </g>
  <g id="Layer_6" data-name="Layer 6">
    <path class="cls-6" d="M391.5,394.5c-9-8-25.71-9.33-33-9-10.04.46-22.93,1.04-34,11-16.28,14.64-14.17,36.52-14,38,2.58,22.76,21.47,33.08,24,34,22,8,46,2,51-1s13-9,14-15h75c-3.17,11.42-7,21-15,31-7.07,8.83-24.64,23.38-49,29-26,6-51.2,5.93-71,4-34.49-3.36-51-9-71-23-22.28-15.6-25.57-37.05-27-46-1.18-7.39-5-35,9-61,10.21-18.97,26.75-27.12,34-31,16.14-8.65,31.47-11.16,49-13,13.55-1.43,24.4-1.45,44,0,27,2,42.24,5.42,55,11,16,7,22.45,17.35,25,20,14.46,15.03,16.81,32.05,16,32l-73.5-1s-4.05-6.05-8.5-10Z"/>
    <path class="cls-6" d="M513,511l109-169h66l108,169-72,1-15.5-27.5h-108l-15,27-72.5-.5ZM654.5,390.5l-30,51h60l-30-51Z"/>
    <polygon class="cls-6" points="845 342 916 342 917 470 1043 470 1043 512 845 512 845 342"/>
    <path class="cls-6" d="M200.48,597.92c-5.5-4.89-15.71-5.7-20.16-5.5-6.14.28-14.01.64-20.77,6.72-9.95,8.95-8.66,22.31-8.55,23.22,1.58,13.91,13.12,20.21,14.66,20.77,13.44,4.89,28.1,1.22,31.16-.61,3.05-1.83,7.94-5.5,8.55-9.16h45.82c-1.94,6.98-4.28,12.83-9.16,18.94-4.32,5.4-15.05,14.28-29.94,17.72-15.88,3.67-31.28,3.62-43.38,2.44-21.07-2.05-31.16-5.5-43.38-14.05-13.61-9.53-15.62-22.64-16.5-28.1-.72-4.51-3.05-21.38,5.5-37.27,6.24-11.59,16.34-16.57,20.77-18.94,9.86-5.28,19.23-6.82,29.94-7.94,8.28-.87,14.9-.89,26.88,0,16.5,1.22,25.81,3.31,33.6,6.72,9.77,4.28,13.71,10.6,15.27,12.22,8.84,9.18,10.27,19.58,9.77,19.55l-44.9-.61s-2.48-3.69-5.19-6.11Z"/>
    <path class="cls-6" d="M508.89,633.48c-1.94,6.98-4.28,12.83-9.16,18.94-4.32,5.4-15.05,14.28-29.94,17.72-15.88,3.67-31.28,3.62-43.38,2.44-21.07-2.05-31.16-5.5-43.38-14.05-13.61-9.53-15.62-22.64-16.5-28.1-.72-4.51-3.05-21.38,5.5-37.27,6.24-11.59,16.34-16.57,20.77-18.94,9.86-5.28,19.23-6.82,29.94-7.94,8.28-.87,14.9-.89,26.88,0,16.5,1.22,25.81,3.31,33.6,6.72,9.77,4.28,14.27,10.8,17.77,15.01,5,6,7,13,8,19,1,5,1,10,1,14s-1.11,12.48-1.11,12.48ZM438,592c-17.12,0-30,12.26-30,28s12.88,26,30,26,30-10.26,30-26-12.88-28-30-28Z"/>
    <path class="cls-6" d="M731,568c6.02.86,14.31,2.63,20,5,6.22,2.59,12.64,5.27,17,12,4.69,7.25,4.27,14.99,4,20-.26,4.87-.6,11.15-5,17-4.06,5.41-9.74,8-12,9-2.36,1.05-4.46,1.64-6,2,11.1,2.8,15.25,7.38,17,11,1.63,3.37,3,4.94,3,14,0,7,3,12,3,12h-40c-1,0-2.62-2.95-3-4-1.11-3.04-1.78-5.27-2-7-1.4-10.81-3.92-12.03-6-14-1.63-1.54-5.9-3.98-10-5h-38v30h-43v-104h82c7.04.28,12,1,19,2ZM714,615s15-2,15-12-15-12-15-12h-41v24h41Z"/>
    <path class="cls-6" d="M1009,571c11.17,3.49,15.37,7.67,18,11,7.4,9.38,6,20.78,6,25,0,6-1.74,11.57-9,19-1.6,1.64-9,7-21,10-7.64,1.91-20.3,2.85-33,3,0,0-25.38.09-36,0v31h-43v-104h80c12,0,22,0,38,5ZM977,615c8,0,14-5,14-11,0-11-6-13-14-13h-43v24c-.56-.56,43,0,43,0Z"/>
  </g>
  <g id="Layer_7" data-name="Layer 7">
    <path class="cls-5" d="M382,395c-2.01-4.73-6.32-12.87-15-19-15.19-10.72-37.85-11.1-54,1-19.93,14.93-18.25,40.09-18,43,.21,2.47,1.94,21.43,19.5,32.5,18.99,11.98,56,12,69.5-13.5h73c-2,9.59-6.86,25.49-20,39-15.47,15.9-33.68,19.52-58,24-24.69,4.55-60.89,11.22-100-6-13.66-6.01-31.32-13.79-44-33-22.26-33.72-9.03-72.15-8-75,10.32-28.47,34.2-41.95,42.5-46.5,15.5-8.5,40.52-12.09,68-13,15.74-.52,47.5,1.5,67,9,15.52,5.97,35.59,18.77,45,35,6.18,10.67,3.56,16.95,3.5,23.5l-71-1Z"/>
    <polygon class="cls-2" points="497.5 500.5 606.5 331.5 670.5 331.5 774.5 501.5 707.5 501.5 679.5 456.5 590.5 456.5 563.5 500.5 497.5 500.5"/>
    <polygon class="cls-4" points="667.5 431.5 615.5 431.5 641.5 386.5 667.5 431.5"/>
    <polygon class="cls-2" points="1024.5 459.5 1024.5 502.5 827.5 501.5 827.5 332.5 898.5 332.5 898.5 459.5 1024.5 459.5"/>
  </g>
</svg>